<?xml version="1.0" encoding="iso-8859-1"?>
<svg version="1.1" xmlns="http://www.w3.org/2000/svg" x="0px" y="0px"
	 viewBox="0 0 512 512" xml:space="preserve">
<g>
	<path d="M256,0C114.6,0,0,114.6,0,256s114.6,256,256,256s256-114.6,256-256S397.4,0,256,0z M358.6,332.1
		c12.5,12.5,12.5,32.8,0,45.3c-6.2,6.2-14.4,9.4-22.6,9.4s-16.4-3.1-22.6-9.4L256,319.9l-57.4,57.4
		c-6.2,6.2-14.4,9.4-22.6,9.4s-16.4-3.1-22.6-9.4c-12.5-12.5-12.5-32.8,0-45.3l57.4-57.4l-57.4-57.4
		c-12.5-12.5-12.5-32.8,0-45.3s32.8-12.5,45.3,0l57.4,57.4l57.4-57.4c12.5-12.5,32.8-12.5,45.3,0s12.5,32.8,0,45.3
		L301.1,274.7L358.6,332.1z"/>
</g>
</svg>
